<svg version="1.1" xmlns="http://www.w3.org/2000/svg" viewBox="0 0 1446 663.9271856379881" width="1446" height="663.9271856379881" filter="invert(93%) hue-rotate(180deg)">
  <!-- svg-source:excalidraw -->
  
  <defs>
    <style class="style-fonts">
      @font-face {
        font-family: "Virgil";
        src: url("https://excalidraw.com/Virgil.woff2");
      }
      @font-face {
        font-family: "Cascadia";
        src: url("https://excalidraw.com/Cascadia.woff2");
      }
      @font-face {
        font-family: "Assistant";
        src: url("https://excalidraw.com/Assistant-Regular.woff2");
      }
    </style>
    
  </defs>
  <rect x="0" y="0" width="1446" height="663.9271856379881" fill="#ffffff"></rect><g transform="translate(10 386.92718563798815) rotate(0 168.5 -70.5)" stroke="none"><path fill="#1e1e1e" d="M 2.86,-1.24 Q 2.86,-1.24 5.67,5.39 8.49,12.03 12.28,22.41 16.07,32.79 21.66,46.32 27.25,59.85 34.19,74.18 41.14,88.51 50.94,104.88 60.74,121.25 68.59,131.88 76.44,142.52 80.75,147.69 85.07,152.86 88.99,152.47 92.91,152.09 102.99,138.80 113.07,125.51 128.73,98.59 144.40,71.68 163.14,34.09 181.88,-3.49 201.91,-47.63 221.95,-91.77 237.33,-136.31 252.71,-180.85 262.12,-212.99 271.53,-245.13 275.81,-262.22 280.09,-279.30 281.92,-286.30 283.75,-293.29 283.86,-293.59 283.97,-293.89 284.15,-294.15 284.34,-294.41 284.57,-294.61 284.81,-294.82 285.09,-294.97 285.37,-295.12 285.68,-295.19 285.99,-295.27 286.31,-295.26 286.62,-295.26 286.93,-295.19 287.24,-295.11 287.52,-294.96 287.80,-294.81 288.04,-294.60 288.27,-294.39 288.45,-294.13 288.63,-293.87 288.74,-293.57 288.85,-293.27 288.89,-292.96 288.93,-292.64 288.89,-292.33 288.85,-292.01 289.66,-284.51 290.47,-277.01 292.24,-236.18 294.01,-195.35 297.63,-147.89 301.26,-100.42 304.23,-67.60 307.21,-34.78 313.34,-3.13 319.48,28.51 324.65,46.21 329.83,63.92 332.31,71.14 334.78,78.37 336.25,80.59 337.72,82.81 338.91,84.57 340.11,86.33 340.29,86.87 340.48,87.41 340.48,87.98 340.48,88.55 340.30,89.09 340.12,89.64 339.78,90.09 339.43,90.55 338.96,90.87 338.49,91.19 337.94,91.35 337.39,91.50 336.82,91.47 336.25,91.45 335.72,91.24 335.19,91.03 334.75,90.66 334.31,90.29 334.02,89.80 333.72,89.31 333.60,88.76 333.47,88.20 333.53,87.63 333.59,87.06 333.83,86.54 334.07,86.03 334.46,85.61 334.85,85.19 335.35,84.92 335.86,84.65 336.42,84.56 336.98,84.47 337.55,84.56 338.11,84.65 338.62,84.91 339.12,85.18 339.51,85.59 339.91,86.00 340.15,86.52 340.39,87.04 340.46,87.61 340.52,88.17 340.40,88.73 340.28,89.29 339.99,89.78 339.69,90.27 339.26,90.64 338.83,91.01 338.30,91.23 337.77,91.44 337.20,91.47 336.63,91.51 336.08,91.35 335.52,91.20 335.05,90.89 334.58,90.57 334.23,90.11 333.88,89.66 333.88,89.66 333.88,89.66 333.08,87.69 332.28,85.72 331.05,82.90 329.82,80.08 327.30,72.74 324.78,65.39 319.55,47.45 314.32,29.51 308.15,-2.39 301.98,-34.30 298.99,-67.16 296.01,-100.02 292.39,-147.58 288.76,-195.13 286.99,-235.81 285.23,-276.49 284.49,-284.89 283.75,-293.29 283.86,-293.59 283.97,-293.89 284.15,-294.15 284.33,-294.41 284.57,-294.61 284.81,-294.82 285.09,-294.97 285.37,-295.12 285.68,-295.19 285.99,-295.27 286.31,-295.26 286.62,-295.26 286.93,-295.19 287.24,-295.11 287.52,-294.96 287.80,-294.81 288.04,-294.60 288.27,-294.39 288.45,-294.13 288.63,-293.87 288.74,-293.57 288.85,-293.27 288.89,-292.96 288.93,-292.64 288.89,-292.33 288.85,-292.01 287.02,-285.02 285.20,-278.02 280.89,-260.84 276.58,-243.65 267.13,-211.39 257.69,-179.13 242.22,-134.36 226.75,-89.59 206.68,-45.36 186.60,-1.14 167.79,36.60 148.98,74.34 133.11,101.56 117.24,128.78 105.89,142.76 94.53,156.73 88.62,156.91 82.70,157.09 77.40,151.41 72.10,145.73 64.08,134.89 56.06,124.06 46.11,107.49 36.16,90.93 29.11,76.47 22.05,62.02 16.35,48.40 10.65,34.79 6.83,24.60 3.00,14.41 0.07,7.83 -2.86,1.24 -2.97,0.88 -3.08,0.52 -3.09,0.14 -3.11,-0.22 -3.04,-0.59 -2.97,-0.96 -2.81,-1.30 -2.65,-1.65 -2.41,-1.94 -2.18,-2.23 -1.88,-2.46 -1.58,-2.69 -1.23,-2.84 -0.89,-2.99 -0.51,-3.05 -0.14,-3.12 0.22,-3.09 0.60,-3.06 0.96,-2.94 1.31,-2.83 1.63,-2.63 1.95,-2.43 2.22,-2.16 2.48,-1.89 2.67,-1.57 2.86,-1.24 2.86,-1.24 L 2.86,-1.24 Z"></path></g><g transform="translate(196 420.92718563798815) rotate(0 156 -119)" stroke="none"><path fill="#1e1e1e" d="M -2.50,-2.29 Q -2.50,-2.29 12.80,-18.89 28.12,-35.50 55.71,-61.87 83.30,-88.24 128.47,-123.35 173.65,-158.47 208.15,-180.32 242.66,-202.17 262.53,-213.17 282.40,-224.18 297.03,-232.29 311.66,-240.39 312.08,-240.54 312.50,-240.69 312.94,-240.70 313.39,-240.71 313.81,-240.57 314.23,-240.44 314.59,-240.18 314.95,-239.92 315.20,-239.56 315.46,-239.19 315.59,-238.77 315.71,-238.34 315.70,-237.90 315.68,-237.46 315.53,-237.04 315.37,-236.63 315.09,-236.28 314.81,-235.94 314.43,-235.71 314.06,-235.47 313.63,-235.37 313.20,-235.26 312.76,-235.30 312.31,-235.34 311.91,-235.52 311.50,-235.70 311.17,-236.00 310.85,-236.29 310.63,-236.68 310.42,-237.07 310.34,-237.51 310.26,-237.94 310.32,-238.38 310.38,-238.82 310.58,-239.22 310.78,-239.61 311.10,-239.92 311.41,-240.23 311.81,-240.43 312.21,-240.62 312.65,-240.68 313.09,-240.73 313.53,-240.65 313.96,-240.56 314.34,-240.34 314.73,-240.12 315.02,-239.79 315.32,-239.45 315.49,-239.04 315.66,-238.64 315.69,-238.19 315.72,-237.75 315.61,-237.32 315.50,-236.89 315.26,-236.52 315.02,-236.15 314.67,-235.87 314.33,-235.60 314.33,-235.60 314.33,-235.60 299.71,-227.46 285.10,-219.32 265.40,-208.34 245.71,-197.37 211.47,-175.61 177.24,-153.86 132.37,-118.86 87.50,-83.85 60.16,-57.52 32.82,-31.19 17.66,-14.45 2.50,2.29 2.19,2.55 1.88,2.82 1.52,3.00 1.15,3.19 0.75,3.28 0.35,3.37 -0.05,3.37 -0.46,3.36 -0.85,3.26 -1.25,3.15 -1.61,2.96 -1.97,2.76 -2.27,2.48 -2.57,2.21 -2.80,1.87 -3.03,1.53 -3.17,1.14 -3.31,0.76 -3.35,0.35 -3.39,-0.05 -3.34,-0.45 -3.28,-0.86 -3.13,-1.24 -2.98,-1.62 -2.74,-1.95 -2.50,-2.29 -2.50,-2.29 L -2.50,-2.29 Z"></path></g><g transform="translate(385 350.92718563798815) rotate(0 43.5 42.5)" stroke="none"><path fill="#1e1e1e" d="M 3.51,-0.50 Q 3.51,-0.50 4.01,3.53 4.51,7.56 5.51,16.21 6.52,24.86 7.76,31.89 9.01,38.92 11.20,46.10 13.40,53.28 16.28,59.69 19.17,66.11 22.04,70.76 24.92,75.41 27.22,77.35 29.53,79.30 33.14,77.89 36.76,76.48 39.63,71.78 42.50,67.08 45.56,59.66 48.62,52.24 50.52,46.23 52.43,40.22 53.23,36.06 54.04,31.89 54.20,28.70 54.37,25.52 54.26,23.02 54.15,20.53 54.24,20.08 54.33,19.64 54.52,19.23 54.71,18.82 54.99,18.46 55.28,18.11 55.64,17.83 56.00,17.56 56.42,17.38 56.83,17.20 57.28,17.12 57.73,17.05 58.18,17.08 58.63,17.11 59.06,17.26 59.49,17.40 59.88,17.64 60.26,17.88 60.58,18.20 60.90,18.53 61.13,18.92 61.36,19.31 61.49,19.74 61.61,20.18 61.64,20.63 61.66,21.09 61.89,27.78 62.13,34.48 64.32,40.41 66.51,46.34 70.15,51.63 73.79,56.92 77.26,60.60 80.72,64.27 82.81,65.58 84.90,66.88 86.88,67.82 88.86,68.77 89.32,69.15 89.79,69.53 90.11,70.04 90.43,70.55 90.57,71.14 90.71,71.72 90.66,72.32 90.60,72.92 90.36,73.48 90.12,74.03 89.71,74.47 89.30,74.92 88.78,75.21 88.25,75.50 87.66,75.61 87.06,75.72 86.47,75.63 85.87,75.55 85.33,75.27 84.80,75.00 84.37,74.57 83.95,74.14 83.69,73.60 83.42,73.06 83.35,72.46 83.27,71.86 83.39,71.27 83.51,70.68 83.81,70.16 84.11,69.64 84.56,69.24 85.02,68.84 85.57,68.61 86.13,68.37 86.73,68.33 87.33,68.28 87.91,68.44 88.50,68.59 89.00,68.91 89.51,69.24 89.88,69.72 90.25,70.19 90.46,70.76 90.66,71.32 90.67,71.93 90.68,72.53 90.50,73.10 90.32,73.68 89.96,74.17 89.61,74.65 89.11,75.00 88.62,75.35 88.04,75.52 87.47,75.69 86.86,75.67 86.26,75.65 85.70,75.43 85.13,75.22 85.13,75.22 85.13,75.22 82.96,73.77 80.78,72.32 78.59,70.38 76.41,68.44 72.53,64.48 68.65,60.53 64.48,54.64 60.30,48.74 57.64,41.88 54.98,35.01 54.50,30.00 54.01,24.99 54.08,22.76 54.15,20.53 54.24,20.08 54.33,19.64 54.52,19.23 54.71,18.82 54.99,18.46 55.28,18.11 55.64,17.83 56.00,17.56 56.42,17.38 56.83,17.20 57.28,17.12 57.73,17.05 58.18,17.08 58.63,17.11 59.06,17.25 59.49,17.40 59.88,17.64 60.26,17.88 60.58,18.20 60.90,18.53 61.13,18.92 61.36,19.31 61.49,19.74 61.61,20.18 61.64,20.63 61.66,21.09 61.13,23.63 60.60,26.17 60.08,29.54 59.56,32.92 58.75,37.42 57.94,41.92 56.04,48.20 54.14,54.48 50.95,62.43 47.77,70.38 44.06,76.15 40.35,81.91 35.76,84.27 31.18,86.62 28.24,85.21 25.30,83.80 22.76,81.09 20.22,78.38 17.11,73.42 13.99,68.47 10.91,61.75 7.82,55.03 5.43,47.54 3.04,40.05 1.62,32.86 0.20,25.67 -1.00,17.10 -2.21,8.53 -2.86,4.51 -3.51,0.50 -3.52,0.07 -3.53,-0.35 -3.44,-0.77 -3.34,-1.18 -3.15,-1.57 -2.96,-1.95 -2.68,-2.28 -2.41,-2.60 -2.06,-2.85 -1.71,-3.10 -1.31,-3.26 -0.92,-3.42 -0.49,-3.49 -0.07,-3.55 0.35,-3.50 0.77,-3.46 1.18,-3.32 1.58,-3.17 1.94,-2.94 2.29,-2.70 2.58,-2.39 2.87,-2.07 3.08,-1.70 3.29,-1.32 3.40,-0.91 3.51,-0.50 3.51,-0.50 L 3.51,-0.50 Z"></path></g><g transform="translate(504 372.92718563798815) rotate(0 76.5 -77)" stroke="none"><path fill="#1e1e1e" d="M -3.74,-1.87 Q -3.74,-1.87 -2.69,-4.21 -1.64,-6.54 -1.36,-10.11 -1.08,-13.67 -3.04,-12.59 -5.01,-11.51 -7.84,-6.28 -10.68,-1.05 -12.91,7.34 -15.14,15.74 -16.77,23.42 -18.41,31.09 -18.27,40.35 -18.13,49.61 -15.70,56.31 -13.26,63.00 -8.66,66.37 -4.06,69.75 4.88,70.66 13.83,71.57 25.34,66.42 36.85,61.28 51.13,47.25 65.40,33.21 78.35,12.72 91.29,-7.76 100.19,-34.39 109.10,-61.03 113.75,-90.09 118.41,-119.15 120.40,-143.56 122.39,-167.97 121.80,-184.85 121.22,-201.73 120.68,-210.08 120.15,-218.43 119.57,-222.17 118.98,-225.92 118.61,-226.68 118.24,-227.44 118.23,-227.81 118.23,-228.19 118.31,-228.55 118.40,-228.92 118.57,-229.25 118.74,-229.58 118.98,-229.87 119.23,-230.15 119.53,-230.37 119.84,-230.59 120.19,-230.72 120.54,-230.86 120.91,-230.91 121.28,-230.96 121.65,-230.92 122.03,-230.88 122.38,-230.75 122.73,-230.62 123.04,-230.41 123.35,-230.20 123.61,-229.93 123.86,-229.65 124.04,-229.32 124.21,-228.99 124.31,-228.63 124.40,-228.26 122.68,-220.62 120.95,-212.98 119.44,-197.17 117.94,-181.35 116.71,-161.39 115.48,-141.42 118.11,-119.08 120.74,-96.73 127.81,-78.53 134.89,-60.33 142.15,-47.46 149.42,-34.60 156.94,-27.02 164.46,-19.45 168.24,-16.18 172.02,-12.92 174.01,-11.77 176.01,-10.63 177.56,-9.75 179.12,-8.88 179.52,-8.47 179.93,-8.05 180.18,-7.53 180.43,-7.01 180.50,-6.43 180.57,-5.86 180.46,-5.29 180.34,-4.72 180.05,-4.22 179.76,-3.72 179.33,-3.34 178.89,-2.96 178.36,-2.73 177.82,-2.51 177.24,-2.47 176.67,-2.43 176.10,-2.58 175.54,-2.72 175.06,-3.04 174.57,-3.36 174.22,-3.81 173.86,-4.27 173.66,-4.81 173.47,-5.36 173.46,-5.94 173.45,-6.52 173.63,-7.07 173.80,-7.62 174.15,-8.09 174.49,-8.55 174.97,-8.89 175.44,-9.22 176.00,-9.38 176.55,-9.55 177.13,-9.53 177.71,-9.50 178.25,-9.30 178.79,-9.09 179.24,-8.72 179.69,-8.36 179.99,-7.86 180.30,-7.37 180.43,-6.81 180.57,-6.25 180.51,-5.67 180.46,-5.09 180.23,-4.56 179.99,-4.03 179.60,-3.61 179.21,-3.18 178.70,-2.90 178.19,-2.62 177.62,-2.52 177.05,-2.41 176.48,-2.50 175.91,-2.58 175.39,-2.85 174.87,-3.11 174.87,-3.11 174.87,-3.11 173.58,-4.33 172.28,-5.55 170.42,-7.24 168.57,-8.92 164.63,-12.33 160.69,-15.73 152.76,-23.84 144.83,-31.95 137.38,-45.18 129.93,-58.40 122.68,-77.23 115.43,-96.06 112.77,-118.90 110.11,-141.74 111.32,-161.80 112.52,-181.87 114.04,-198.00 115.56,-214.13 116.90,-220.78 118.24,-227.44 118.23,-227.81 118.23,-228.19 118.31,-228.55 118.40,-228.92 118.57,-229.25 118.74,-229.58 118.98,-229.87 119.23,-230.15 119.53,-230.37 119.84,-230.59 120.19,-230.72 120.54,-230.86 120.91,-230.91 121.28,-230.96 121.65,-230.92 122.03,-230.88 122.38,-230.75 122.73,-230.62 123.04,-230.41 123.35,-230.20 123.60,-229.93 123.86,-229.65 124.04,-229.32 124.21,-228.99 124.31,-228.63 124.40,-228.26 124.47,-227.47 124.53,-226.68 124.98,-222.72 125.43,-218.76 125.97,-210.34 126.51,-201.91 127.10,-184.73 127.69,-167.54 125.69,-142.92 123.68,-118.30 118.94,-88.82 114.20,-59.34 105.04,-32.11 95.89,-4.89 82.57,16.11 69.26,37.11 54.22,51.72 39.18,66.32 26.38,71.74 13.57,77.16 3.18,75.87 -7.20,74.57 -12.93,70.05 -18.66,65.53 -21.58,57.70 -24.51,49.87 -24.81,39.85 -25.11,29.83 -23.72,21.89 -22.32,13.96 -20.14,4.58 -17.95,-4.79 -14.46,-11.63 -10.97,-18.47 -6.34,-21.84 -1.72,-25.20 1.97,-24.05 5.67,-22.90 6.94,-20.56 8.21,-18.22 8.34,-15.56 8.46,-12.91 8.12,-10.00 7.77,-7.09 7.01,-4.87 6.24,-2.65 4.99,-0.38 3.74,1.87 3.46,2.29 3.19,2.71 2.81,3.05 2.44,3.40 2.00,3.64 1.56,3.88 1.07,4.01 0.58,4.14 0.08,4.15 -0.42,4.16 -0.91,4.05 -1.40,3.94 -1.86,3.72 -2.31,3.49 -2.69,3.16 -3.08,2.83 -3.37,2.42 -3.67,2.01 -3.85,1.55 -4.04,1.08 -4.11,0.58 -4.18,0.08 -4.13,-0.42 -4.08,-0.92 -3.91,-1.39 -3.74,-1.87 -3.74,-1.87 L -3.74,-1.87 Z"></path></g><g transform="translate(559 365.92718563798815) rotate(0 129.5 -103)" stroke="none"><path fill="#1e1e1e" d="M -2.84,-1.29 Q -2.84,-1.29 0.09,-7.59 3.04,-13.90 13.68,-27.21 24.33,-40.53 40.03,-59.01 55.72,-77.50 72.21,-95.16 88.70,-112.83 114.30,-131.12 139.89,-149.41 159.36,-162.03 178.83,-174.65 200.20,-184.40 221.56,-194.15 232.07,-198.27 242.58,-202.40 250.30,-205.43 258.02,-208.47 258.44,-208.56 258.86,-208.65 259.29,-208.60 259.72,-208.55 260.11,-208.37 260.49,-208.19 260.80,-207.89 261.12,-207.59 261.31,-207.21 261.51,-206.83 261.58,-206.41 261.65,-205.98 261.58,-205.56 261.51,-205.14 261.30,-204.76 261.10,-204.38 260.79,-204.09 260.47,-203.79 260.08,-203.61 259.69,-203.43 259.27,-203.39 258.84,-203.35 258.42,-203.44 258.00,-203.53 257.63,-203.76 257.27,-203.98 256.99,-204.31 256.71,-204.64 256.56,-205.04 256.40,-205.44 256.38,-205.87 256.36,-206.29 256.47,-206.71 256.59,-207.12 256.83,-207.47 257.08,-207.83 257.42,-208.09 257.76,-208.35 258.17,-208.48 258.58,-208.62 259.01,-208.61 259.44,-208.61 259.84,-208.47 260.25,-208.33 260.59,-208.07 260.93,-207.81 261.17,-207.45 261.41,-207.10 261.52,-206.68 261.64,-206.27 261.61,-205.84 261.58,-205.41 261.42,-205.01 261.26,-204.62 260.98,-204.29 260.70,-203.96 260.33,-203.74 259.97,-203.52 259.97,-203.52 259.97,-203.52 252.25,-200.48 244.53,-197.44 234.16,-193.36 223.79,-189.27 202.78,-179.69 181.77,-170.11 162.41,-157.54 143.06,-144.98 117.90,-127.01 92.73,-109.04 76.38,-91.45 60.02,-73.86 44.43,-55.39 28.85,-36.92 18.65,-24.15 8.45,-11.39 5.65,-5.05 2.84,1.29 2.64,1.61 2.45,1.93 2.18,2.20 1.91,2.46 1.59,2.66 1.27,2.85 0.91,2.96 0.55,3.07 0.17,3.09 -0.20,3.11 -0.57,3.04 -0.94,2.97 -1.28,2.82 -1.62,2.66 -1.92,2.43 -2.21,2.20 -2.44,1.90 -2.67,1.60 -2.83,1.26 -2.98,0.91 -3.05,0.54 -3.11,0.17 -3.09,-0.19 -3.07,-0.57 -2.95,-0.93 -2.84,-1.29 -2.84,-1.29 L -2.84,-1.29 Z"></path></g><g transform="translate(709 282.92718563798815) rotate(0 18.5 60.5)" stroke="none"><path fill="#1e1e1e" d="M 3.17,-1.19 Q 3.17,-1.19 5.66,5.74 8.15,12.68 10.39,22.44 12.62,32.19 15.26,46.09 17.90,59.99 21.55,72.35 25.21,84.72 29.01,93.92 32.82,103.13 34.75,107.98 36.67,112.84 38.17,116.38 39.68,119.92 39.78,120.37 39.88,120.83 39.83,121.30 39.78,121.76 39.59,122.19 39.39,122.61 39.07,122.95 38.75,123.29 38.34,123.51 37.92,123.73 37.46,123.81 37.00,123.89 36.54,123.81 36.08,123.74 35.67,123.52 35.25,123.30 34.93,122.96 34.61,122.62 34.41,122.20 34.21,121.77 34.16,121.31 34.11,120.85 34.21,120.39 34.31,119.93 34.55,119.53 34.79,119.13 35.14,118.83 35.50,118.52 35.93,118.35 36.37,118.17 36.83,118.15 37.30,118.12 37.75,118.25 38.20,118.37 38.59,118.63 38.98,118.89 39.26,119.26 39.55,119.64 39.70,120.08 39.85,120.52 39.85,120.99 39.85,121.46 39.70,121.90 39.55,122.34 39.27,122.72 38.99,123.09 38.60,123.35 38.21,123.62 37.76,123.74 37.31,123.87 36.85,123.84 36.38,123.82 35.95,123.65 35.51,123.47 35.15,123.17 34.80,122.87 34.55,122.47 34.31,122.07 34.31,122.07 34.31,122.07 32.95,118.47 31.59,114.88 29.64,110.07 27.69,105.27 23.72,95.80 19.76,86.34 15.96,73.72 12.16,61.11 9.44,47.34 6.72,33.58 4.45,24.24 2.19,14.91 -0.49,8.05 -3.17,1.19 -3.27,0.79 -3.36,0.39 -3.36,-0.01 -3.36,-0.42 -3.26,-0.81 -3.16,-1.21 -2.97,-1.57 -2.78,-1.93 -2.51,-2.24 -2.23,-2.54 -1.90,-2.77 -1.56,-3.00 -1.18,-3.15 -0.79,-3.29 -0.39,-3.34 0.01,-3.38 0.41,-3.33 0.82,-3.28 1.20,-3.14 1.58,-2.99 1.92,-2.76 2.25,-2.52 2.52,-2.22 2.79,-1.91 2.98,-1.55 3.17,-1.18 3.17,-1.19 L 3.17,-1.19 Z"></path></g><g transform="translate(715 254.92718563798815) rotate(0 0.00004999999998744897 0.00004999999998744897)" stroke="none"><path fill="#1e1e1e" d="M 3.14,-3.14 Q 3.14,-3.14 3.55,-2.55 3.97,-1.97 4.18,-1.28 4.40,-0.59 4.38,0.11 4.36,0.83 4.11,1.51 3.86,2.18 3.41,2.74 2.96,3.30 2.36,3.69 1.75,4.08 1.05,4.25 0.36,4.42 -0.35,4.36 -1.07,4.31 -1.73,4.02 -2.39,3.74 -2.92,3.26 -3.46,2.78 -3.81,2.15 -4.16,1.53 -4.30,0.82 -4.43,0.11 -4.34,-0.59 -4.24,-1.30 -3.92,-1.94 -3.60,-2.59 -3.09,-3.09 -2.59,-3.60 -1.94,-3.92 -1.30,-4.24 -0.59,-4.34 0.12,-4.43 0.82,-4.30 1.53,-4.16 2.15,-3.81 2.78,-3.46 3.26,-2.92 3.74,-2.39 4.02,-1.73 4.31,-1.07 4.36,-0.35 4.42,0.36 4.25,1.05 4.07,1.75 3.69,2.36 3.30,2.96 2.74,3.41 2.18,3.86 1.51,4.11 0.83,4.36 0.11,4.38 -0.60,4.40 -1.28,4.18 -1.97,3.97 -2.55,3.55 -3.14,3.13 -3.14,3.14 -3.14,3.14 -3.47,2.71 -3.80,2.29 -4.02,1.80 -4.24,1.32 -4.33,0.79 -4.43,0.26 -4.40,-0.26 -4.36,-0.80 -4.20,-1.31 -4.04,-1.82 -3.77,-2.28 -3.49,-2.73 -3.11,-3.11 -2.73,-3.49 -2.28,-3.77 -1.82,-4.05 -1.31,-4.20 -0.80,-4.36 -0.26,-4.40 0.26,-4.43 0.79,-4.33 1.32,-4.24 1.80,-4.02 2.29,-3.80 2.71,-3.47 3.14,-3.14 3.14,-3.14 L 3.14,-3.14 Z"></path></g><g transform="translate(778 283.92718563798815) rotate(0 44 35)" stroke="none"><path fill="#1e1e1e" d="M 2.35,2.05 Q 2.35,2.05 -1.68,6.54 -5.72,11.03 -7.48,18.45 -9.24,25.88 -10.09,33.95 -10.94,42.03 -10.46,50.78 -9.98,59.54 -7.60,66.97 -5.22,74.41 0.25,79.19 5.74,83.97 15.96,85.11 26.19,86.26 42.09,81.73 58.00,77.20 69.50,69.97 81.00,62.74 86.56,55.05 92.11,47.35 94.43,39.53 96.75,31.71 94.39,23.10 92.03,14.48 83.79,5.27 75.56,-3.93 70.56,-9.16 65.55,-14.38 61.82,-18.28 58.09,-22.18 57.85,-22.53 57.61,-22.88 57.50,-23.29 57.38,-23.70 57.40,-24.12 57.42,-24.55 57.58,-24.94 57.73,-25.34 58.01,-25.67 58.28,-25.99 58.64,-26.21 59.01,-26.43 59.42,-26.53 59.84,-26.62 60.26,-26.58 60.69,-26.53 61.07,-26.36 61.46,-26.18 61.77,-25.89 62.08,-25.60 62.28,-25.22 62.48,-24.85 62.55,-24.43 62.63,-24.01 62.56,-23.59 62.49,-23.17 62.29,-22.79 62.10,-22.41 61.79,-22.12 61.48,-21.83 61.10,-21.64 60.71,-21.46 60.29,-21.42 59.87,-21.37 59.45,-21.46 59.03,-21.55 58.67,-21.76 58.30,-21.98 58.02,-22.30 57.75,-22.63 57.59,-23.02 57.43,-23.42 57.40,-23.84 57.38,-24.27 57.49,-24.68 57.60,-25.09 57.84,-25.44 58.08,-25.79 58.41,-26.05 58.75,-26.31 59.15,-26.45 59.56,-26.59 59.98,-26.59 60.41,-26.59 60.81,-26.46 61.22,-26.33 61.56,-26.07 61.90,-25.81 61.90,-25.81 61.90,-25.81 65.62,-21.92 69.35,-18.03 74.44,-12.71 79.52,-7.40 88.27,2.76 97.01,12.94 99.42,22.88 101.82,32.83 99.12,41.61 96.42,50.39 90.17,58.77 83.92,67.15 71.70,74.73 59.49,82.31 42.58,86.94 25.67,91.56 14.16,89.89 2.64,88.22 -3.77,82.31 -10.20,76.40 -12.85,68.14 -15.49,59.89 -16.02,50.68 -16.54,41.47 -15.69,32.98 -14.85,24.48 -12.61,15.92 -10.37,7.36 -6.36,2.65 -2.35,-2.05 -2.07,-2.30 -1.79,-2.56 -1.45,-2.73 -1.12,-2.91 -0.76,-3.00 -0.39,-3.09 -0.01,-3.10 0.35,-3.10 0.72,-3.01 1.09,-2.92 1.42,-2.75 1.75,-2.58 2.04,-2.33 2.32,-2.08 2.54,-1.77 2.75,-1.46 2.89,-1.11 3.02,-0.76 3.07,-0.39 3.12,-0.01 3.08,0.35 3.03,0.72 2.90,1.08 2.77,1.43 2.56,1.74 2.35,2.05 2.35,2.05 L 2.35,2.05 Z"></path></g><g transform="translate(902 266.92718563798815) rotate(0 141.5 191)" stroke="none"><path fill="#1e1e1e" d="M 3.35,-4.02 Q 3.35,-4.02 5.11,-2.61 6.87,-1.21 9.57,2.21 12.27,5.64 14.57,8.80 16.87,11.96 18.09,14.10 19.32,16.24 20.41,18.31 21.51,20.37 23.40,23.80 25.29,27.23 26.20,29.20 27.11,31.16 27.96,33.67 28.81,36.19 28.93,36.93 29.05,37.68 28.99,38.43 28.92,39.18 28.68,39.89 28.44,40.61 28.04,41.24 27.63,41.88 27.09,42.40 26.55,42.92 25.89,43.29 25.24,43.67 24.52,43.87 23.79,44.08 23.04,44.11 22.29,44.14 21.55,43.98 20.81,43.83 20.13,43.51 19.45,43.18 18.87,42.71 18.29,42.23 17.84,41.62 17.39,41.02 17.10,40.33 16.80,39.63 17.25,36.76 17.70,33.88 18.39,31.61 19.08,29.34 19.95,25.74 20.83,22.13 22.02,17.79 23.20,13.45 24.71,8.94 26.22,4.42 26.95,1.84 27.68,-0.73 28.44,-3.40 29.19,-6.08 30.96,-7.39 32.73,-8.71 36.03,-8.65 39.34,-8.59 41.81,-7.30 44.29,-6.02 47.23,-4.00 50.17,-1.98 53.25,0.50 56.32,2.99 59.00,6.03 61.68,9.07 64.62,13.03 67.55,16.99 70.23,21.09 72.90,25.19 75.51,30.57 78.12,35.94 80.62,41.98 83.12,48.02 88.14,58.55 93.15,69.08 99.02,81.95 104.90,94.82 111.39,108.61 117.89,122.40 123.82,135.78 129.74,149.15 136.53,162.23 143.31,175.31 150.18,186.57 157.05,197.83 164.27,208.64 171.49,219.46 176.57,226.63 181.64,233.81 185.75,238.81 189.87,243.81 193.24,246.99 196.62,250.17 199.39,251.54 202.15,252.91 204.90,253.64 207.65,254.37 210.87,254.67 214.09,254.97 218.86,254.13 223.63,253.28 229.82,250.48 236.02,247.68 241.35,242.95 246.69,238.21 251.56,232.52 256.44,226.83 260.16,220.26 263.88,213.69 267.79,205.44 271.69,197.19 274.15,187.00 276.61,176.81 277.67,166.51 278.73,156.21 278.33,144.76 277.93,133.31 275.22,123.49 272.51,113.66 270.23,107.46 267.95,101.27 263.68,95.44 259.41,89.61 252.76,82.54 246.10,75.47 238.86,70.88 231.63,66.29 225.94,63.15 220.25,60.01 216.49,58.44 212.73,56.86 208.51,56.25 204.29,55.64 199.04,55.35 193.79,55.07 187.25,54.94 180.70,54.81 175.98,55.05 171.25,55.28 164.59,57.06 157.92,58.84 152.85,60.99 147.78,63.15 143.40,65.73 139.02,68.32 134.87,71.13 130.71,73.95 127.59,76.54 124.47,79.13 122.84,81.38 121.22,83.63 119.72,85.83 118.21,88.03 117.10,91.34 115.98,94.66 115.57,97.41 115.16,100.15 115.26,103.15 115.36,106.14 116.11,108.64 116.85,111.15 117.97,115.01 119.09,118.87 119.93,120.96 120.78,123.05 121.71,126.75 122.63,130.45 123.84,134.73 125.05,139.01 126.92,145.29 128.79,151.57 130.99,161.31 133.18,171.04 136.88,184.84 140.59,198.64 145.31,218.69 150.02,238.74 155.44,261.61 160.85,284.49 165.72,305.44 170.58,326.39 174.35,341.89 178.12,357.39 179.73,365.78 181.34,374.17 182.51,380.32 183.69,386.47 183.70,386.91 183.72,387.36 183.59,387.78 183.46,388.21 183.20,388.57 182.94,388.93 182.58,389.19 182.22,389.45 181.80,389.58 181.37,389.72 180.93,389.70 180.49,389.69 180.07,389.54 179.65,389.39 179.30,389.11 178.96,388.84 178.72,388.46 178.48,388.09 178.37,387.66 178.26,387.23 178.29,386.78 178.33,386.34 178.50,385.93 178.68,385.52 178.97,385.19 179.27,384.86 179.65,384.64 180.04,384.42 180.48,384.33 180.91,384.25 181.35,384.31 181.79,384.37 182.19,384.56 182.59,384.76 182.91,385.07 183.22,385.39 183.42,385.78 183.62,386.18 183.68,386.62 183.74,387.06 183.66,387.50 183.58,387.93 183.36,388.32 183.14,388.71 182.81,389.01 182.48,389.31 182.07,389.48 181.67,389.66 181.22,389.70 180.78,389.73 180.35,389.63 179.92,389.52 179.54,389.28 179.17,389.04 178.89,388.70 178.61,388.35 178.45,387.94 178.30,387.52 178.30,387.52 178.30,387.52 177.08,381.38 175.86,375.24 174.22,367.00 172.58,358.75 168.72,343.24 164.86,327.73 159.88,306.83 154.90,285.92 149.33,263.08 143.76,240.24 138.86,220.37 133.97,200.50 129.94,186.66 125.91,172.83 123.43,163.54 120.95,154.26 118.61,148.25 116.26,142.24 114.30,137.91 112.34,133.57 111.22,130.53 110.11,127.49 108.86,124.55 107.60,121.60 106.85,118.51 106.09,115.42 105.65,112.67 105.21,109.92 105.09,106.48 104.98,103.04 105.52,100.29 106.06,97.55 107.09,94.63 108.13,91.72 109.13,89.60 110.12,87.48 111.45,85.59 112.77,83.70 114.65,81.66 116.53,79.62 118.81,77.32 121.08,75.02 124.42,72.31 127.77,69.59 132.06,66.69 136.36,63.79 141.04,61.05 145.73,58.30 151.15,56.03 156.57,53.76 163.77,51.89 170.97,50.02 175.89,49.78 180.80,49.55 187.44,49.67 194.08,49.80 199.59,50.11 205.09,50.42 209.92,51.20 214.75,51.98 218.77,53.69 222.79,55.40 228.63,58.63 234.47,61.85 242.19,66.84 249.92,71.83 256.80,79.17 263.69,86.51 268.30,92.95 272.90,99.39 275.27,105.82 277.64,112.26 280.45,122.68 283.26,133.09 283.67,144.93 284.08,156.76 282.98,167.42 281.88,178.08 279.27,188.79 276.66,199.50 272.70,207.97 268.74,216.43 264.76,223.47 260.79,230.51 255.69,236.55 250.58,242.60 244.60,247.89 238.62,253.18 231.73,256.37 224.84,259.57 219.10,260.66 213.37,261.75 209.46,261.20 205.56,260.64 202.37,259.36 199.19,258.08 196.10,256.06 193.02,254.04 189.39,250.61 185.77,247.19 181.53,242.04 177.28,236.89 172.16,229.66 167.04,222.44 159.74,211.54 152.44,200.65 145.45,189.24 138.47,177.83 131.57,164.62 124.68,151.41 118.73,138.12 112.78,124.82 106.21,111.04 99.63,97.25 93.69,84.47 87.75,71.69 82.55,61.10 77.35,50.51 74.77,44.74 72.18,38.97 69.60,34.14 67.01,29.32 64.23,25.65 61.44,21.99 58.28,18.50 55.13,15.01 52.95,12.70 50.78,10.39 47.84,8.41 44.91,6.42 40.42,4.20 35.93,1.97 35.06,4.29 34.18,6.61 33.26,10.91 32.34,15.22 31.87,19.46 31.41,23.70 30.11,29.94 28.81,36.19 28.93,36.93 29.05,37.68 28.99,38.43 28.92,39.18 28.68,39.89 28.44,40.61 28.04,41.24 27.63,41.88 27.09,42.40 26.55,42.92 25.89,43.29 25.24,43.67 24.52,43.87 23.79,44.08 23.04,44.11 22.29,44.14 21.55,43.98 20.81,43.83 20.13,43.51 19.45,43.18 18.87,42.71 18.29,42.23 17.84,41.62 17.39,41.02 17.10,40.33 16.80,39.64 16.80,38.60 16.80,37.56 15.79,35.61 14.77,33.67 14.14,31.55 13.51,29.43 12.44,27.58 11.37,25.72 9.34,21.95 7.31,18.18 5.02,14.82 2.74,11.46 1.38,9.21 0.02,6.96 -1.66,5.49 -3.35,4.02 -3.78,3.56 -4.22,3.10 -4.53,2.55 -4.84,2.00 -5.01,1.39 -5.18,0.78 -5.20,0.15 -5.22,-0.47 -5.08,-1.09 -4.95,-1.70 -4.67,-2.27 -4.40,-2.84 -3.99,-3.33 -3.59,-3.81 -3.08,-4.19 -2.57,-4.56 -1.99,-4.80 -1.40,-5.04 -0.78,-5.14 -0.15,-5.23 0.47,-5.18 1.10,-5.12 1.69,-4.91 2.29,-4.71 2.82,-4.36 3.35,-4.02 3.35,-4.02 L 3.35,-4.02 Z"></path></g><g transform="translate(1153 593.9271856379881) rotate(0 21.5 -4)" stroke="none"><path fill="#1e1e1e" d="M -3.63,-1.91 Q -3.63,-1.91 -0.58,-7.28 2.46,-12.65 4.58,-17.87 6.71,-23.09 7.62,-27.96 8.52,-32.84 8.72,-35.59 8.91,-38.35 3.71,-34.70 -1.48,-31.06 -6.43,-23.79 -11.37,-16.53 -13.76,-8.83 -16.15,-1.14 -17.26,3.61 -18.37,8.36 -18.27,12.00 -18.17,15.64 -15.87,19.26 -13.57,22.89 -7.53,25.73 -1.49,28.58 10.39,30.45 22.27,32.32 31.42,33.17 40.56,34.02 46.79,33.25 53.02,32.48 56.37,31.25 59.72,30.03 62.34,28.95 64.96,27.87 65.49,27.79 66.01,27.70 66.54,27.79 67.06,27.88 67.53,28.13 68.00,28.39 68.37,28.77 68.73,29.16 68.95,29.65 69.17,30.13 69.23,30.66 69.28,31.19 69.16,31.71 69.05,32.23 68.77,32.69 68.49,33.14 68.08,33.48 67.68,33.83 67.18,34.02 66.68,34.21 66.15,34.24 65.62,34.27 65.11,34.12 64.59,33.97 64.16,33.67 63.72,33.37 63.40,32.95 63.08,32.52 62.91,32.01 62.74,31.51 62.75,30.98 62.75,30.44 62.92,29.94 63.10,29.44 63.42,29.01 63.75,28.59 64.19,28.29 64.63,28.00 65.14,27.86 65.66,27.72 66.19,27.75 66.72,27.78 67.22,27.98 67.71,28.18 68.11,28.53 68.52,28.88 68.79,29.34 69.06,29.80 69.17,30.32 69.28,30.84 69.22,31.37 69.16,31.90 68.94,32.38 68.71,32.86 68.34,33.24 67.97,33.63 67.50,33.87 67.03,34.12 67.03,34.12 67.03,34.12 64.28,34.81 61.53,35.51 57.61,36.68 53.70,37.86 46.90,38.68 40.09,39.50 30.74,38.67 21.39,37.85 8.71,35.79 -3.97,33.72 -11.10,30.01 -18.23,26.30 -21.22,21.26 -24.20,16.22 -24.35,11.66 -24.51,7.09 -23.52,2.01 -22.52,-3.06 -19.96,-11.74 -17.40,-20.42 -12.05,-28.68 -6.70,-36.95 -1.73,-41.50 3.23,-46.06 6.93,-47.38 10.63,-48.71 13.65,-45.22 16.67,-41.73 16.32,-39.56 15.96,-37.40 15.40,-34.58 14.85,-31.76 13.98,-26.22 13.12,-20.68 11.07,-14.94 9.03,-9.19 6.33,-3.64 3.63,1.91 3.35,2.32 3.07,2.72 2.70,3.05 2.33,3.38 1.89,3.61 1.45,3.84 0.97,3.96 0.49,4.08 -0.00,4.08 -0.50,4.07 -0.98,3.96 -1.46,3.84 -1.90,3.61 -2.33,3.37 -2.70,3.05 -3.07,2.72 -3.36,2.31 -3.64,1.90 -3.81,1.44 -3.99,0.97 -4.05,0.48 -4.11,-0.00 -4.05,-0.49 -3.98,-0.98 -3.81,-1.45 -3.63,-1.91 -3.63,-1.91 L -3.63,-1.91 Z"></path></g><g transform="translate(1237 561.9271856379881) rotate(0 21 31.5)" stroke="none"><path fill="#1e1e1e" d="M 3.71,2.86 Q 3.71,2.86 0.63,6.42 -2.45,9.99 -3.38,12.14 -4.30,14.29 -4.94,16.93 -5.58,19.56 -5.63,22.65 -5.69,25.73 -5.17,28.57 -4.66,31.40 -3.44,33.28 -2.21,35.15 -0.38,36.32 1.44,37.49 3.88,36.66 6.33,35.84 8.59,34.14 10.86,32.45 13.20,29.10 15.54,25.74 16.43,23.44 17.31,21.13 17.59,18.78 17.86,16.43 17.94,14.92 18.02,13.41 18.18,12.86 18.34,12.32 18.63,11.82 18.92,11.33 19.32,10.92 19.71,10.51 20.20,10.20 20.68,9.90 21.23,9.72 21.77,9.54 22.34,9.50 22.91,9.46 23.48,9.55 24.04,9.65 24.57,9.87 25.09,10.10 25.55,10.45 26.00,10.79 26.36,11.24 26.72,11.68 26.96,12.20 27.21,12.72 27.32,13.28 27.43,13.84 27.40,14.41 27.38,14.98 27.57,18.46 27.77,21.94 29.33,27.50 30.89,33.05 34.55,39.90 38.21,46.74 41.59,50.70 44.98,54.65 47.05,56.11 49.11,57.58 51.74,58.31 54.38,59.04 54.97,59.36 55.57,59.69 56.03,60.18 56.49,60.68 56.77,61.30 57.05,61.92 57.11,62.59 57.18,63.27 57.02,63.93 56.87,64.59 56.52,65.17 56.16,65.74 55.64,66.18 55.12,66.61 54.48,66.85 53.85,67.10 53.17,67.13 52.50,67.16 51.85,66.97 51.19,66.78 50.64,66.39 50.08,66.01 49.68,65.46 49.27,64.92 49.06,64.27 48.85,63.63 48.86,62.95 48.87,62.27 49.09,61.63 49.31,60.99 49.73,60.46 50.15,59.92 50.71,59.55 51.28,59.17 51.93,59.00 52.59,58.82 53.26,58.87 53.94,58.91 54.57,59.17 55.20,59.43 55.71,59.87 56.22,60.32 56.56,60.90 56.91,61.49 57.04,62.15 57.18,62.81 57.10,63.49 57.02,64.16 56.73,64.77 56.44,65.39 55.97,65.87 55.49,66.36 54.89,66.67 54.29,66.98 53.62,67.08 52.95,67.19 52.28,67.07 51.61,66.95 51.61,66.95 51.61,66.95 48.08,65.06 44.54,63.16 42.31,61.08 40.09,58.99 36.09,54.58 32.09,50.18 27.84,42.78 23.59,35.37 21.43,29.04 19.27,22.71 18.64,18.06 18.02,13.41 18.18,12.86 18.34,12.32 18.63,11.82 18.92,11.33 19.32,10.92 19.71,10.51 20.20,10.20 20.68,9.90 21.23,9.72 21.77,9.54 22.34,9.50 22.91,9.46 23.48,9.55 24.04,9.65 24.56,9.87 25.09,10.10 25.55,10.44 26.00,10.79 26.36,11.24 26.72,11.68 26.96,12.20 27.21,12.72 27.32,13.28 27.43,13.84 27.40,14.41 27.38,14.98 27.05,16.45 26.72,17.92 26.05,21.23 25.38,24.54 24.04,27.42 22.69,30.31 19.78,35.12 16.87,39.92 13.56,42.55 10.24,45.18 6.55,46.34 2.85,47.49 0.27,46.96 -2.30,46.43 -4.75,44.94 -7.20,43.45 -8.53,41.40 -9.87,39.35 -11.41,36.16 -12.96,32.96 -13.55,29.29 -14.14,25.62 -14.08,21.51 -14.03,17.40 -13.05,13.93 -12.07,10.46 -10.56,7.70 -9.04,4.95 -6.38,1.04 -3.71,-2.86 -3.32,-3.26 -2.92,-3.66 -2.44,-3.96 -1.96,-4.26 -1.42,-4.43 -0.88,-4.60 -0.32,-4.64 0.24,-4.68 0.79,-4.58 1.35,-4.49 1.87,-4.26 2.39,-4.03 2.83,-3.69 3.28,-3.34 3.64,-2.90 3.99,-2.46 4.23,-1.94 4.46,-1.43 4.57,-0.87 4.68,-0.32 4.65,0.24 4.62,0.80 4.45,1.34 4.29,1.88 4.00,2.37 3.71,2.86 3.71,2.86 L 3.71,2.86 Z"></path></g><g transform="translate(1301 607.9271856379881) rotate(0 -11 -266.5)" stroke="none"><path fill="#1e1e1e" d="M -3.10,-0.31 Q -3.10,-0.31 -2.46,-6.05 -1.82,-11.79 -1.53,-23.32 -1.25,-34.84 -1.11,-67.94 -0.97,-101.04 -0.90,-131.21 -0.83,-161.39 -4.23,-205.16 -7.64,-248.92 -15.40,-295.92 -23.15,-342.91 -33.61,-383.81 -44.08,-424.71 -52.82,-453.00 -61.57,-481.29 -66.71,-495.59 -71.86,-509.88 -74.32,-516.23 -76.78,-522.58 -78.08,-524.06 -79.38,-525.54 -79.47,-525.91 -79.56,-526.28 -79.57,-526.66 -79.57,-527.04 -79.48,-527.41 -79.39,-527.78 -79.22,-528.12 -79.05,-528.45 -78.80,-528.74 -78.55,-529.03 -78.24,-529.25 -77.92,-529.46 -77.57,-529.60 -77.22,-529.74 -76.84,-529.79 -76.46,-529.84 -76.08,-529.80 -75.71,-529.75 -75.35,-529.62 -74.99,-529.49 -74.68,-529.28 -74.36,-529.06 -74.11,-528.78 -73.85,-528.50 -73.67,-528.16 -73.49,-527.83 -74.25,-523.58 -75.01,-519.33 -75.34,-514.11 -75.67,-508.89 -75.54,-502.09 -75.42,-495.29 -74.24,-486.76 -73.06,-478.23 -69.15,-463.77 -65.23,-449.32 -56.38,-418.69 -47.52,-388.05 -37.44,-355.21 -27.36,-322.36 -17.61,-288.53 -7.86,-254.71 2.88,-219.95 13.63,-185.19 23.66,-151.71 33.70,-118.23 40.54,-96.55 47.38,-74.87 50.86,-64.22 54.35,-53.57 56.92,-45.69 59.50,-37.81 59.56,-37.39 59.63,-36.97 59.56,-36.55 59.48,-36.13 59.28,-35.76 59.08,-35.38 58.77,-35.09 58.45,-34.80 58.07,-34.63 57.68,-34.45 57.25,-34.41 56.83,-34.37 56.41,-34.46 56.00,-34.56 55.64,-34.78 55.27,-35.00 55.00,-35.33 54.73,-35.66 54.57,-36.05 54.42,-36.45 54.40,-36.88 54.38,-37.30 54.50,-37.71 54.61,-38.12 54.86,-38.47 55.10,-38.82 55.44,-39.08 55.78,-39.33 56.19,-39.47 56.59,-39.60 57.02,-39.59 57.44,-39.59 57.85,-39.45 58.25,-39.31 58.59,-39.05 58.92,-38.79 59.16,-38.43 59.40,-38.08 59.51,-37.67 59.62,-37.26 59.59,-36.83 59.56,-36.41 59.40,-36.01 59.24,-35.62 58.96,-35.29 58.68,-34.97 58.31,-34.76 57.95,-34.54 57.53,-34.45 57.11,-34.36 56.69,-34.41 56.27,-34.46 55.88,-34.65 55.50,-34.83 55.19,-35.12 54.88,-35.42 54.69,-35.80 54.49,-36.18 54.49,-36.18 54.49,-36.18 51.91,-44.05 49.33,-51.93 45.84,-62.61 42.35,-73.28 35.49,-94.99 28.63,-116.71 18.59,-150.17 8.56,-183.62 -2.20,-218.43 -12.97,-253.23 -22.72,-287.01 -32.48,-320.79 -42.59,-353.67 -52.70,-386.55 -61.59,-417.22 -70.48,-447.89 -74.50,-462.67 -78.52,-477.46 -79.77,-486.31 -81.03,-495.16 -81.21,-502.19 -81.40,-509.22 -81.10,-514.91 -80.80,-520.59 -80.09,-523.06 -79.38,-525.54 -79.47,-525.91 -79.56,-526.28 -79.57,-526.66 -79.57,-527.04 -79.48,-527.41 -79.39,-527.78 -79.22,-528.12 -79.05,-528.45 -78.80,-528.74 -78.55,-529.03 -78.24,-529.25 -77.92,-529.46 -77.57,-529.60 -77.22,-529.74 -76.84,-529.79 -76.46,-529.84 -76.08,-529.80 -75.71,-529.75 -75.35,-529.62 -74.99,-529.49 -74.68,-529.28 -74.36,-529.06 -74.11,-528.78 -73.85,-528.50 -73.67,-528.16 -73.49,-527.83 -72.68,-526.18 -71.86,-524.53 -69.36,-518.10 -66.86,-511.68 -61.67,-497.27 -56.48,-482.87 -47.68,-454.45 -38.88,-426.04 -28.36,-384.92 -17.83,-343.80 -10.01,-296.57 -2.20,-249.35 1.24,-205.37 4.69,-161.38 4.68,-131.20 4.66,-101.02 4.59,-67.87 4.52,-34.72 4.32,-22.96 4.12,-11.20 3.61,-5.44 3.10,0.31 3.02,0.67 2.94,1.04 2.77,1.38 2.60,1.72 2.36,2.00 2.12,2.29 1.81,2.51 1.51,2.73 1.16,2.87 0.81,3.01 0.43,3.07 0.06,3.12 -0.30,3.08 -0.68,3.04 -1.03,2.92 -1.39,2.79 -1.70,2.58 -2.02,2.38 -2.27,2.10 -2.53,1.82 -2.71,1.49 -2.89,1.16 -2.99,0.80 -3.09,0.44 -3.10,0.06 -3.10,-0.31 -3.10,-0.31 L -3.10,-0.31 Z"></path></g><g transform="translate(1355 392.92718563798815) rotate(0 29 90)" stroke="none"><path fill="#1e1e1e" d="M 3.89,0 Q 3.89,0 3.72,6.03 3.55,12.07 2.84,18.25 2.13,24.42 -0.23,35.19 -2.61,45.97 -5.67,56.31 -8.73,66.66 -10.94,72.54 -13.14,78.42 -14.60,82.10 -16.06,85.78 -19.82,89.27 -23.58,92.75 -24.24,92.35 -24.91,91.96 -25.29,91.66 -25.67,91.36 -25.97,90.98 -26.26,90.60 -26.46,90.15 -26.66,89.71 -26.74,89.23 -26.83,88.76 -26.80,88.27 -26.77,87.79 -26.62,87.33 -26.47,86.87 -26.22,86.45 -25.97,86.04 -25.62,85.70 -25.28,85.36 -24.87,85.11 -24.45,84.86 -23.99,84.72 -23.52,84.57 -23.04,84.55 -22.56,84.52 -22.08,84.61 -21.60,84.70 -21.16,84.90 -20.72,85.10 -13.24,90.47 -5.76,95.84 4.29,105.27 14.36,114.69 28.97,129.11 43.59,143.53 53.17,152.21 62.74,160.89 68.49,165.73 74.25,170.57 78.54,174.18 82.82,177.79 83.13,178.14 83.43,178.49 83.61,178.91 83.79,179.34 83.82,179.81 83.85,180.27 83.73,180.72 83.61,181.17 83.36,181.55 83.10,181.94 82.74,182.23 82.37,182.51 81.93,182.66 81.49,182.82 81.03,182.82 80.57,182.83 80.13,182.69 79.68,182.54 79.31,182.27 78.94,181.99 78.67,181.61 78.41,181.23 78.28,180.79 78.15,180.34 78.17,179.88 78.19,179.41 78.35,178.98 78.52,178.55 78.82,178.19 79.11,177.83 79.51,177.59 79.90,177.35 80.35,177.24 80.80,177.13 81.27,177.18 81.73,177.22 82.15,177.41 82.57,177.60 82.91,177.92 83.26,178.23 83.48,178.64 83.70,179.05 83.78,179.50 83.86,179.96 83.79,180.42 83.72,180.88 83.51,181.29 83.30,181.70 82.97,182.02 82.63,182.35 82.22,182.55 81.80,182.75 81.34,182.80 80.88,182.86 80.42,182.77 79.97,182.67 79.57,182.44 79.17,182.20 79.17,182.20 79.17,182.20 74.82,178.67 70.48,175.13 64.55,170.31 58.63,165.48 48.84,156.84 39.05,148.19 24.35,134.01 9.65,119.83 -0.56,110.68 -10.79,101.53 -15.54,97.17 -20.30,92.80 -22.60,92.38 -24.91,91.96 -25.29,91.66 -25.67,91.36 -25.96,90.98 -26.26,90.60 -26.46,90.15 -26.66,89.71 -26.74,89.23 -26.83,88.76 -26.80,88.27 -26.77,87.79 -26.62,87.33 -26.47,86.87 -26.22,86.45 -25.97,86.04 -25.63,85.70 -25.28,85.36 -24.87,85.11 -24.45,84.86 -23.99,84.72 -23.52,84.57 -23.04,84.55 -22.56,84.52 -22.08,84.61 -21.60,84.70 -21.16,84.90 -20.72,85.10 -21.14,84.31 -21.56,83.52 -20.06,79.98 -18.56,76.43 -16.52,70.72 -14.47,65.00 -11.59,54.83 -8.71,44.67 -6.57,34.23 -4.43,23.79 -3.99,17.93 -3.55,12.07 -3.72,6.03 -3.89,0 -3.83,-0.46 -3.78,-0.93 -3.61,-1.37 -3.44,-1.80 -3.18,-2.19 -2.91,-2.58 -2.56,-2.89 -2.21,-3.20 -1.79,-3.42 -1.38,-3.64 -0.92,-3.75 -0.46,-3.86 0.00,-3.86 0.46,-3.86 0.92,-3.75 1.38,-3.64 1.79,-3.42 2.21,-3.20 2.56,-2.89 2.91,-2.58 3.18,-2.19 3.44,-1.80 3.61,-1.37 3.78,-0.93 3.83,-0.46 3.89,0.00 3.89,0.00 L 3.89,0 Z"></path></g><g stroke-linecap="round"><g transform="translate(233 628.9271856379881) rotate(0 415 -175.5)"><path d="M-0.22 0.02 C138.23 -58.57, 692.28 -292.38, 830.54 -350.71 M-1.79 -1.01 C136.55 -60.06, 690.93 -294.22, 829.87 -352.68" stroke="#1e1e1e" stroke-width="2" fill="none"></path></g><g transform="translate(233 628.9271856379881) rotate(0 415 -175.5)"><path d="M811.55 -335.68 C816.78 -339.69, 822.54 -346.69, 829.87 -352.68 M811.55 -335.68 C818.24 -341.42, 825.02 -348.4, 829.87 -352.68" stroke="#1e1e1e" stroke-width="2" fill="none"></path></g><g transform="translate(233 628.9271856379881) rotate(0 415 -175.5)"><path d="M804.9 -351.43 C812.18 -350.86, 819.87 -353.28, 829.87 -352.68 M804.9 -351.43 C814.03 -351.09, 823.37 -351.99, 829.87 -352.68" stroke="#1e1e1e" stroke-width="2" fill="none"></path></g></g><mask></mask><g stroke-linecap="round"><g transform="translate(1059 273.92718563798815) rotate(0 77 -131.5)"><path d="M0.45 -1.01 C26.09 -44.85, 127.57 -218.54, 153.06 -262.22 M-0.77 1.07 C25.3 -43.18, 129.76 -220.11, 155.28 -263.93" stroke="#1e1e1e" stroke-width="2" fill="none"></path></g><g transform="translate(1059 273.92718563798815) rotate(0 77 -131.5)"><path d="M150.76 -239.34 C149.98 -246.77, 154.04 -252.07, 155.28 -263.93 M150.76 -239.34 C152.56 -246.99, 153.75 -252.97, 155.28 -263.93" stroke="#1e1e1e" stroke-width="2" fill="none"></path></g><g transform="translate(1059 273.92718563798815) rotate(0 77 -131.5)"><path d="M136.01 -248 C138.8 -253.43, 146.37 -256.66, 155.28 -263.93 M136.01 -248 C142.21 -253.03, 147.73 -256.47, 155.28 -263.93" stroke="#1e1e1e" stroke-width="2" fill="none"></path></g></g><mask></mask></svg>